<svg width="80" height="80" viewBox="0 0 80 80" fill="none" xmlns="http://www.w3.org/2000/svg">
<path d="M40 80C62.0914 80 80 62.0914 80 40C80 17.9086 62.0914 0 40 0C17.9086 0 0 17.9086 0 40C0 62.0914 17.9086 80 40 80Z" fill="white"/>
<path d="M20 55H60V59C60 61.2091 58.2091 63 56 63H24C21.7909 63 20 61.2091 20 59V55Z" fill="#0958D6"/>
<path d="M16 27C16 24.7909 17.7909 23 20 23H60C62.2091 23 64 24.7909 64 27V47C64 49.2091 62.2091 51 60 51H20C17.7909 51 16 49.2091 16 47V27Z" fill="#0182FF"/>
<path d="M30 23V20C30 18.8954 30.8954 18 32 18H48C49.1046 18 50 18.8954 50 20V23" stroke="#0958D6" stroke-width="2"/>
</svg>

